<?xml version="1.0" encoding="UTF-8"?>
<svg width="456" height="456" viewBox="0 0 456 456" version="1.1" xmlns="http://www.w3.org/2000/svg">
  <circle cx="228" cy="228" r="168" fill="#0E0D0B"/>
  <circle cx="228" cy="228" r="152" fill="none" stroke="#D8B45F" stroke-width="10"/>
  <circle cx="228" cy="228" r="126" fill="#161310" stroke="#4E493F" stroke-width="5"/>

  <path d="M132 292L180 158H276L324 292H132Z" fill="#090909"/>
  <path d="M180 158H276L310 253H146L180 158Z" fill="#1E1A15"/>
  <path d="M190 181H266L289 249H167L190 181Z" fill="#070707"/>

  <path d="M168 255H288" stroke="#D8B45F" stroke-width="8" stroke-linecap="round"/>
  <path d="M183 214H273" stroke="#7E6C43" stroke-width="7" stroke-linecap="round"/>
  <path d="M199 176H257" stroke="#7E6C43" stroke-width="7" stroke-linecap="round"/>

  <path d="M228 176V294" stroke="#D8B45F" stroke-width="9" stroke-linecap="round"/>
  <path d="M186 294L207 255L228 294L249 255L270 294" fill="none" stroke="#AFA694" stroke-width="7" stroke-linecap="round" stroke-linejoin="round"/>

  <path d="M118 314H338" stroke="#443E34" stroke-width="12" stroke-linecap="round"/>
  <path d="M146 318L310 318" stroke="#D8B45F" stroke-width="4" stroke-linecap="round" opacity="0.8"/>

  <path d="M300 139L330 111" stroke="#D8B45F" stroke-width="10" stroke-linecap="round"/>
  <path d="M318 97C346 99 365 117 370 143" stroke="#D8B45F" stroke-width="10" stroke-linecap="round"/>
  <path d="M328 112L363 147" stroke="#D8B45F" stroke-width="9" stroke-linecap="round"/>
  <path d="M313 151L351 113" stroke="#4E493F" stroke-width="5" stroke-linecap="round"/>

  <path d="M151 337H305" stroke="#A43A2B" stroke-width="7" stroke-linecap="round"/>
  <path d="M174 358H282" stroke="#D8B45F" stroke-width="6" stroke-linecap="round"/>
  <path d="M200 126L218 102L232 132L250 97L270 126" fill="none" stroke="#A43A2B" stroke-width="7" stroke-linecap="round" stroke-linejoin="round"/>
</svg>
